<svg width="46" height="33" viewBox="0 0 46 33" fill="none" xmlns="http://www.w3.org/2000/svg">
<g filter="url(#filter0_d_84_2058)">
<path d="M39.4167 10.4167H6.08333C4.83333 10.4167 4 11.25 4 12.5C4 13.75 4.83333 14.5833 6.08333 14.5833H39.4167C40.6667 14.5833 41.5 13.75 41.5 12.5C41.5 11.25 40.6667 10.4167 39.4167 10.4167ZM6.08333 4.16667H39.4167C40.6667 4.16667 41.5 3.33333 41.5 2.08333C41.5 0.833333 40.6667 0 39.4167 0H6.08333C4.83333 0 4 0.833333 4 2.08333C4 3.33333 4.83333 4.16667 6.08333 4.16667ZM39.4167 20.8333H6.08333C4.83333 20.8333 4 21.6667 4 22.9167C4 24.1667 4.83333 25 6.08333 25H39.4167C40.6667 25 41.5 24.1667 41.5 22.9167C41.5 21.6667 40.6667 20.8333 39.4167 20.8333Z" fill="#535353"/>
<path d="M6.08333 10.9167H39.4167C39.928 10.9167 40.3153 11.0849 40.5735 11.3431C40.8317 11.6013 41 11.9886 41 12.5C41 13.0114 40.8317 13.3987 40.5735 13.6569C40.3153 13.9151 39.928 14.0833 39.4167 14.0833H6.08333C5.57196 14.0833 5.18466 13.9151 4.92647 13.6569C4.66828 13.3987 4.5 13.0114 4.5 12.5C4.5 11.9886 4.66828 11.6013 4.92647 11.3431C5.18466 11.0849 5.57196 10.9167 6.08333 10.9167ZM39.4167 3.66667H6.08333C5.57196 3.66667 5.18466 3.49839 4.92647 3.2402C4.66828 2.982 4.5 2.59471 4.5 2.08333C4.5 1.57196 4.66828 1.18466 4.92647 0.92647C5.18466 0.668276 5.57196 0.5 6.08333 0.5H39.4167C39.928 0.5 40.3153 0.668276 40.5735 0.92647C40.8317 1.18466 41 1.57196 41 2.08333C41 2.59471 40.8317 2.982 40.5735 3.2402C40.3153 3.49839 39.928 3.66667 39.4167 3.66667ZM6.08333 21.3333H39.4167C39.928 21.3333 40.3153 21.5016 40.5735 21.7598C40.8317 22.018 41 22.4053 41 22.9167C41 23.428 40.8317 23.8153 40.5735 24.0735C40.3153 24.3317 39.928 24.5 39.4167 24.5H6.08333C5.57196 24.5 5.18466 24.3317 4.92647 24.0735C4.66828 23.8153 4.5 23.428 4.5 22.9167C4.5 22.4053 4.66828 22.018 4.92647 21.7598C5.18466 21.5016 5.57196 21.3333 6.08333 21.3333Z" stroke="black"/>
</g>
<defs>
<filter id="filter0_d_84_2058" x="0" y="0" width="45.5" height="33" filterUnits="userSpaceOnUse" color-interpolation-filters="sRGB">
<feFlood flood-opacity="0" result="BackgroundImageFix"/>
<feColorMatrix in="SourceAlpha" type="matrix" values="0 0 0 0 0 0 0 0 0 0 0 0 0 0 0 0 0 0 127 0" result="hardAlpha"/>
<feOffset dy="4"/>
<feGaussianBlur stdDeviation="2"/>
<feComposite in2="hardAlpha" operator="out"/>
<feColorMatrix type="matrix" values="0 0 0 0 0 0 0 0 0 0 0 0 0 0 0 0 0 0 0.25 0"/>
<feBlend mode="normal" in2="BackgroundImageFix" result="effect1_dropShadow_84_2058"/>
<feBlend mode="normal" in="SourceGraphic" in2="effect1_dropShadow_84_2058" result="shape"/>
</filter>
</defs>
</svg>
